<svg xmlns="http://www.w3.org/2000/svg" width="120" height="120"><defs><radialGradient id="a" cx="50%" cy="0%" r="69.799%" fx="50%" fy="0%"><stop offset="0%" stop-color="#283F62"/><stop offset="100%" stop-color="#101A2A"/></radialGradient><radialGradient id="e" cx="12.721%" cy="29.998%" r="174.728%" fx="12.721%" fy="29.998%" gradientTransform="matrix(.3754 .51532 -.22573 .857 .147 -.023)"><stop offset="0%" stop-color="#B071BF"/><stop offset="100%" stop-color="#8B60EC" stop-opacity="0"/></radialGradient><radialGradient id="f" cx="-26.428%" cy="78.773%" r="169.24%" fx="-26.428%" fy="78.773%" gradientTransform="matrix(.3862 .3854 -.1613 .92275 -.035 .163)"><stop offset="0%" stop-color="#B071BF"/><stop offset="100%" stop-color="#243654"/></radialGradient><radialGradient id="h" cx="12.721%" cy="29.998%" r="174.728%" fx="12.721%" fy="29.998%" gradientTransform="matrix(.3754 .51532 -.22573 .857 .147 -.023)"><stop offset="0%" stop-color="#B071BF"/><stop offset="100%" stop-color="#8B60EC" stop-opacity="0"/></radialGradient><radialGradient id="j" cx="-28.204%" cy="90.723%" r="169.241%" fx="-28.204%" fy="90.723%" gradientTransform="matrix(.3862 .3854 -.1613 .92275 -.027 .179)"><stop offset="0%" stop-color="#B071BF"/><stop offset="100%" stop-color="#243654"/></radialGradient><radialGradient id="l" cx="12.721%" cy="29.998%" r="174.729%" fx="12.721%" fy="29.998%" gradientTransform="matrix(.37539 .51532 -.22573 .857 .147 -.023)"><stop offset="0%" stop-color="#B071BF"/><stop offset="100%" stop-color="#8B60EC" stop-opacity="0"/></radialGradient><radialGradient id="n" cx="12.721%" cy="29.998%" r="180.746%" fx="12.721%" fy="29.998%" gradientTransform="scale(.41853 1) rotate(29.879 .216 .631)"><stop offset="0%" stop-color="#B071BF"/><stop offset="100%" stop-color="#8B60EC" stop-opacity="0"/></radialGradient><radialGradient id="q" cx="50%" cy="50%" r="34.765%" fx="50%" fy="50%"><stop offset="0%" stop-color="#8F4ADA"/><stop offset="100%" stop-color="#621736" stop-opacity="0"/></radialGradient><radialGradient id="r" cx="0%" cy="0%" r="386.9%" fx="0%" fy="0%"><stop offset="0%" stop-color="#EFC5FF"/><stop offset="100%" stop-color="#BF67F0"/></radialGradient><linearGradient id="b" x1="50.088%" x2="50%" y1="-9.062%" y2="94.026%"><stop offset="0%" stop-color="#BF99F7" stop-opacity=".084"/><stop offset="100%" stop-color="#101A2A"/></linearGradient><linearGradient id="c" x1="25.613%" x2="50%" y1="6.73%" y2="100%"><stop offset="0%" stop-color="#C47EDD"/><stop offset="100%" stop-color="#7850D1"/></linearGradient><linearGradient id="d" x1="0%" x2="96.917%" y1="50%" y2="50%"><stop offset="0%" stop-color="#243552"/><stop offset="100%" stop-color="#121C2B"/></linearGradient><linearGradient id="g" x1="0%" x2="96.917%" y1="50%" y2="50%"><stop offset="0%" stop-color="#243552"/><stop offset="100%" stop-color="#121C2B"/></linearGradient><linearGradient id="i" x1="0%" x2="125.1%" y1="70.062%" y2="12.885%"><stop offset="0%" stop-color="#5B79A2"/><stop offset="62.2%" stop-color="#202E42"/><stop offset="100%" stop-color="#2E4469"/></linearGradient><linearGradient id="k" x1="0%" x2="96.917%" y1="50%" y2="50%"><stop offset="0%" stop-color="#243552"/><stop offset="100%" stop-color="#121C2B"/></linearGradient><linearGradient id="m" x1="0%" x2="125.1%" y1="70.062%" y2="12.885%"><stop offset="0%" stop-color="#5B79A2"/><stop offset="62.2%" stop-color="#202E42"/><stop offset="100%" stop-color="#2E4469"/></linearGradient><linearGradient id="o" x1="100%" x2="85.522%" y1="74.861%" y2="35.646%"><stop offset="0%" stop-color="#8A5AD2"/><stop offset="100%" stop-color="#8B60ED"/></linearGradient><linearGradient id="p" x1="50%" x2="50%" y1="100%" y2="0%"><stop offset="0%" stop-color="#A987F7"/><stop offset="100%" stop-color="#B372BD"/></linearGradient></defs><g fill="none" fill-rule="evenodd"><circle cx="60" cy="60" r="60" fill="url(#a)"/><path stroke="url(#b)" stroke-width="2" d="M79.151 89.742v23.798"/><circle cx="60" cy="60" r="59" stroke="url(#c)" stroke-width="2"/><g transform="translate(19 28)"><path fill="url(#d)" d="M78.786 53.976c-4.376 2.272-27.045 11.555-31.87 14.06-4.827 2.507-7.508 2.483-11.32.668-3.812-1.816-27.936-11.52-32.281-13.59C1.143 54.08 0 53.209 0 52.385v-8.256s31.405-6.81 36.476-8.62c5.07-1.813 6.828-1.878 11.143-.304 4.315 1.575 30.114 6.21 34.378 7.766l-.002 8.139c.001.816-.983 1.711-3.21 2.867z"/><path fill="url(#e)" fill-rule="nonzero" d="M78.786 53.976c-4.376 2.272-27.045 11.555-31.87 14.06-4.827 2.507-7.508 2.483-11.32.668-3.812-1.816-27.936-11.52-32.281-13.59C1.143 54.08 0 53.209 0 52.385v-8.256s31.405-6.81 36.476-8.62c5.07-1.813 6.828-1.878 11.143-.304 4.315 1.575 30.114 6.21 34.378 7.766l-.002 8.139c.001.816-.983 1.711-3.21 2.867z" opacity=".129"/><path fill="url(#f)" fill-rule="nonzero" d="M78.786 45.718C74.41 47.99 51.74 57.274 46.916 59.78c-4.827 2.507-7.508 2.482-11.32.667-3.813-1.814-27.936-11.521-32.281-13.59-4.345-2.068-4.437-3.492-.168-5.156 4.269-1.666 28.26-11.04 33.33-12.853 5.07-1.81 6.829-1.877 11.144-.302 4.315 1.574 26.848 10.507 31.112 12.063 4.265 1.557 4.429 2.839.053 5.11z" opacity=".996"/><path fill="url(#g)" d="M78.786 40.514C74.41 42.786 51.74 52.07 46.916 54.576c-4.827 2.505-7.508 2.481-11.32.666-3.813-1.815-27.936-11.52-32.281-13.59C1.143 40.619 0 39.748 0 38.923v-8.256s31.405-6.809 36.476-8.62c5.07-1.812 6.828-1.878 11.143-.304 4.315 1.575 30.114 6.21 34.378 7.766l-.002 8.139c.001.816-.983 1.711-3.21 2.867z"/><path fill="url(#h)" fill-rule="nonzero" d="M78.786 40.514C74.41 42.786 51.74 52.07 46.916 54.576c-4.827 2.505-7.508 2.481-11.32.666-3.813-1.815-27.936-11.52-32.281-13.59C1.143 40.619 0 39.748 0 38.923v-8.256s31.405-6.809 36.476-8.62c5.07-1.812 6.828-1.878 11.143-.304 4.315 1.575 30.114 6.21 34.378 7.766l-.002 8.139c.001.816-.983 1.711-3.21 2.867z" opacity=".129"/><path fill="url(#i)" fill-rule="nonzero" d="M78.786 32.256c-4.376 2.272-27.045 11.556-31.87 14.062-4.827 2.506-7.508 2.481-11.32.666-3.813-1.814-27.936-11.52-32.281-13.59-4.345-2.067-4.437-3.491-.168-5.157 4.269-1.664 28.26-11.04 33.33-12.851 5.07-1.812 6.829-1.877 11.144-.303S74.469 25.59 78.733 27.146c4.265 1.556 4.429 2.839.053 5.11z"/><path fill="url(#j)" fill-rule="nonzero" d="M78.786 32.256c-4.376 2.272-27.045 11.556-31.87 14.062-4.827 2.506-7.508 2.481-11.32.666-3.813-1.814-27.936-11.52-32.281-13.59-4.345-2.067-4.437-3.491-.168-5.157 4.269-1.664 28.26-11.04 33.33-12.851 5.07-1.812 6.829-1.877 11.144-.303S74.469 25.59 78.733 27.146c4.265 1.556 4.429 2.839.053 5.11z" opacity=".996"/><path fill="url(#k)" d="M78.786 26.553c-4.376 2.272-27.045 11.555-31.87 14.062-4.827 2.506-7.508 2.481-11.32.666C31.783 39.467 7.66 29.76 3.315 27.69 1.143 26.659 0 25.787 0 24.962v-8.255s31.405-6.81 36.476-8.621c5.07-1.812 6.828-1.877 11.143-.303s30.114 6.21 34.378 7.766l-.002 8.138c.001.815-.983 1.71-3.21 2.867z"/><path fill="url(#l)" fill-rule="nonzero" d="M78.786 26.553c-4.376 2.272-27.045 11.555-31.87 14.062-4.827 2.506-7.508 2.481-11.32.666C31.783 39.467 7.66 29.76 3.315 27.69 1.143 26.659 0 25.787 0 24.962v-8.255s31.405-6.81 36.476-8.621c5.07-1.812 6.828-1.877 11.143-.303s30.114 6.21 34.378 7.766l-.002 8.138c.001.815-.983 1.71-3.21 2.867z" opacity=".129"/><path fill="url(#m)" fill-rule="nonzero" d="M78.786 18.295c-4.376 2.272-27.045 11.556-31.87 14.062-4.827 2.505-7.508 2.481-11.32.666-3.812-1.815-27.936-11.52-32.281-13.589-4.345-2.068-4.437-3.493-.168-5.158 4.269-1.665 28.26-11.04 33.33-12.851 5.07-1.812 6.829-1.877 11.144-.303 4.315 1.575 26.848 10.507 31.112 12.063 4.265 1.556 4.429 2.839.053 5.11z"/><path fill="url(#n)" fill-rule="nonzero" d="M78.786 18.295c-4.376 2.272-27.045 11.556-31.87 14.062-4.827 2.505-7.508 2.481-11.32.666-3.812-1.815-27.936-11.52-32.281-13.589-4.345-2.068-4.437-3.493-.168-5.158 4.269-1.665 28.26-11.04 33.33-12.851 5.07-1.812 6.829-1.877 11.144-.303 4.315 1.575 26.848 10.507 31.112 12.063 4.265 1.556 4.429 2.839.053 5.11z" opacity=".996"/><path fill="#1B283E" d="m47.7 16.384 12.451-4.997 11.236 4.504-12.456 4.819z"/><path fill="#141F32" d="m60.15 11.387 3.247 1.3L51.7 17.385l7.931 3.055-.7.271-11.23-4.326 12.45-4.997z"/><path fill="#1B283E" d="m51.744 10.345-7.105.734-1.59 3.812-2.57-4.253-8.204-.735 6.122-2.199-1.836-3.375 5.731 2.233L47.695 4.8l-1.46 3.49zm-9.12 18.493-13.26-5.478 19.001-2.904z"/><ellipse cx="24.24" cy="16.384" fill="#1B283E" rx="10.156" ry="3.921"/><path fill="#141F32" d="M24.24 12.463c5.609 0 10.156 1.756 10.156 3.921l-.004-.12c-1.707-.502-3.84-.8-6.152-.8-5.609 0-10.156 1.755-10.156 3.92l.005.12c-2.434-.716-4.005-1.847-4.005-3.12 0-2.165 4.547-3.92 10.156-3.92z"/></g><path stroke="url(#o)" stroke-width="2" d="M79.141 48.62V20.556l-32.167-9.098-20.535 18.581"/><circle cx="78.974" cy="20" r="3" fill="url(#p)" fill-rule="nonzero"/><circle cx="46.974" cy="12" r="3" fill="url(#p)" fill-rule="nonzero"/><g fill-rule="nonzero" transform="translate(10 11)"><circle fill="url(#q)" style="mix-blend-mode:lighten" cx="18.5" cy="18.5" r="18.5"/><circle cx="18.258" cy="18.479" r="4.117" fill="url(#r)"/></g><path fill="#141F32" d="m60.003 39.505 1.476.133 1.14 1.886-.57 1.367-2.046-3.386zm7.323-2.436 3.418 1.276-.534.054-2.975-1.11.091-.22zm-11.765-4.74 5.73 2.233 5.404-1.762-.8 1.912-2.603.85-5.731-2.233 1.836 3.375-4.293 1.541-3.829-.342 6.122-2.199-1.836-3.375zm11.804 16.127-1.35 1.97-12.651 1.934 8.829 3.647-.569.831-13.26-5.478 19.001-2.904z"/></g></svg>