<svg width="50" height="50" fill="none" xmlns="http://www.w3.org/2000/svg"><path d="M6.44 21.07c-6.314 1.695.89 16.122 7.565 14.422" stroke="#465C7F" stroke-width="1.432"/><rect x="7.228" y="19.233" width="3.297" height="2.83" rx=".703" transform="rotate(75 7.228 19.233)" fill="#21324E"/><rect x="8.076" y="17.725" width="5.77" height="2.418" rx=".703" transform="rotate(75 8.076 17.725)" fill="#465C7F"/><path d="M43.334 21.07c6.313 1.695-.89 16.122-7.565 14.422" stroke="#465C7F" stroke-width="1.432"/><rect width="3.297" height="2.83" rx=".703" transform="scale(-1 1) rotate(75 -33.805 -18.107)" fill="#21324E"/><rect width="5.77" height="2.418" rx=".703" transform="scale(-1 1) rotate(75 -32.4 -18.308)" fill="#465C7F"/><path d="M7.827 12.559a3.5 3.5 0 012.33-3.299L22.87 4.748a6.3 6.3 0 014.214 0L39.798 9.26a3.5 3.5 0 012.33 3.299v8.613a24.5 24.5 0 01-10.32 19.979l-4.62 3.28a3.818 3.818 0 01-4.42 0l-4.622-3.28A24.5 24.5 0 017.827 21.172V12.56z" fill="url(#en46zvjbla)"/><path d="M39.804 13.897v6.624c0 7.7-3.69 14.934-9.926 19.453l-2.909 2.107a3.34 3.34 0 01-3.92 0l-2.909-2.108a24.023 24.023 0 01-9.926-19.452v-6.624c0-1.272.796-2.408 1.993-2.842l10.819-3.92a5.823 5.823 0 013.967 0l10.819 3.92a3.023 3.023 0 011.992 2.842z" stroke="#121B2C" stroke-width=".955"/><path d="M15.464 18.318a2.864 2.864 0 012.863-2.864h13.364a2.864 2.864 0 012.864 2.864v4.773a6.682 6.682 0 01-6.682 6.682h-5.728a6.682 6.682 0 01-6.681-6.682v-4.773z" fill="#121B2C"/><g filter="url(#q577qdaxqb)"><rect x="17.373" y="20.703" width="15.723" height=".902" rx=".451" fill="#53B5FF"/></g><rect opacity=".326" x="17.373" y="23.566" width="10.482" height=".902" rx=".451" fill="#53B5FF"/><g filter="url(#pbjqprq7lc)"><rect width="3.494" height=".902" rx=".451" transform="matrix(-1 0 0 1 33.13 23.566)" fill="#53B5FF"/></g><defs><filter id="q577qdaxqb" x="14.509" y="17.839" width="21.45" height="6.629" filterUnits="userSpaceOnUse" color-interpolation-filters="sRGB"><feFlood flood-opacity="0" result="BackgroundImageFix"/><feColorMatrix in="SourceAlpha" values="0 0 0 0 0 0 0 0 0 0 0 0 0 0 0 0 0 0 127 0" result="hardAlpha"/><feOffset/><feGaussianBlur stdDeviation="1.432"/><feComposite in2="hardAlpha" operator="out"/><feColorMatrix values="0 0 0 0 0.32549 0 0 0 0 0.709804 0 0 0 0 1 0 0 0 1 0"/><feBlend in2="BackgroundImageFix" result="effect1_dropShadow_939_26954"/><feBlend in="SourceGraphic" in2="effect1_dropShadow_939_26954" result="shape"/></filter><filter id="pbjqprq7lc" x="26.773" y="20.703" width="9.221" height="6.629" filterUnits="userSpaceOnUse" color-interpolation-filters="sRGB"><feFlood flood-opacity="0" result="BackgroundImageFix"/><feColorMatrix in="SourceAlpha" values="0 0 0 0 0 0 0 0 0 0 0 0 0 0 0 0 0 0 127 0" result="hardAlpha"/><feOffset/><feGaussianBlur stdDeviation="1.432"/><feComposite in2="hardAlpha" operator="out"/><feColorMatrix values="0 0 0 0 0.32549 0 0 0 0 0.709804 0 0 0 0 1 0 0 0 1 0"/><feBlend in2="BackgroundImageFix" result="effect1_dropShadow_939_26954"/><feBlend in="SourceGraphic" in2="effect1_dropShadow_939_26954" result="shape"/></filter><linearGradient id="en46zvjbla" x1="12.6" y1="8.295" x2="24.977" y2="46" gradientUnits="userSpaceOnUse"><stop stop-color="#77A0D6"/><stop offset="1" stop-color="#2A4064"/></linearGradient></defs></svg>