<svg xmlns="http://www.w3.org/2000/svg"  viewBox="0 0 100 100" width="100px" height="100px"><path fill="#c7ede6" d="M87.215,56.71C88.35,54.555,89,52.105,89,49.5c0-6.621-4.159-12.257-10.001-14.478 C78.999,35.015,79,35.008,79,35c0-11.598-9.402-21-21-21c-9.784,0-17.981,6.701-20.313,15.757C36.211,29.272,34.638,29,33,29 c-7.692,0-14.023,5.793-14.89,13.252C12.906,43.353,9,47.969,9,53.5C9,59.851,14.149,65,20.5,65c0.177,0,0.352-0.012,0.526-0.022 C21.022,65.153,21,65.324,21,65.5C21,76.822,30.178,86,41.5,86c6.437,0,12.175-2.972,15.934-7.614C59.612,80.611,62.64,82,66,82 c4.65,0,8.674-2.65,10.666-6.518C77.718,75.817,78.837,76,80,76c6.075,0,11-4.925,11-11C91,61.689,89.53,58.727,87.215,56.71z"/><path fill="#fff" d="M14.5 52h-10C4.224 52 4 51.776 4 51.5S4.224 51 4.5 51h10c.276 0 .5.224.5.5S14.777 52 14.5 52zM17.5 52h-1c-.276 0-.5-.224-.5-.5s.224-.5.5-.5h1c.276 0 .5.224.5.5S17.777 52 17.5 52zM22.491 54H13.5c-.276 0-.5-.224-.5-.5s.224-.5.5-.5h8.991c.276 0 .5.224.5.5S22.767 54 22.491 54zM11.5 54h-1c-.276 0-.5-.224-.5-.5s.224-.5.5-.5h1c.276 0 .5.224.5.5S11.777 54 11.5 54zM8.5 54h-2C6.224 54 6 53.776 6 53.5S6.224 53 6.5 53h2C8.776 53 9 53.224 9 53.5S8.777 54 8.5 54zM14.5 56h-2c-.276 0-.5-.224-.5-.5s.224-.5.5-.5h2c.276 0 .5.224.5.5S14.776 56 14.5 56zM17.5 47c-.177 0-.823 0-1 0-.276 0-.5.224-.5.5 0 .276.224.5.5.5.177 0 .823 0 1 0 .276 0 .5-.224.5-.5C18 47.224 17.776 47 17.5 47zM17.5 49c-.177 0-4.823 0-5 0-.276 0-.5.224-.5.5 0 .276.224.5.5.5.177 0 4.823 0 5 0 .276 0 .5-.224.5-.5C18 49.224 17.776 49 17.5 49zM22.5 51c-.177 0-2.823 0-3 0-.276 0-.5.224-.5.5 0 .276.224.5.5.5.177 0 2.823 0 3 0 .276 0 .5-.224.5-.5C23 51.224 22.776 51 22.5 51zM70.5 22h-10c-.276 0-.5-.224-.5-.5s.224-.5.5-.5h10c.276 0 .5.224.5.5S70.776 22 70.5 22zM74.5 22h-2c-.276 0-.5-.224-.5-.5s.224-.5.5-.5h2c.276 0 .5.224.5.5S74.776 22 74.5 22zM79.5 24h-10c-.276 0-.5-.224-.5-.5s.224-.5.5-.5h10c.276 0 .5.224.5.5S79.777 24 79.5 24zM67.5 24h-1c-.276 0-.5-.224-.5-.5s.224-.5.5-.5h1c.276 0 .5.224.5.5S67.776 24 67.5 24zM64.47 24H62.5c-.276 0-.5-.224-.5-.5s.224-.5.5-.5h1.97c.276 0 .5.224.5.5S64.746 24 64.47 24zM73.5 20h-5c-.276 0-.5-.224-.5-.5s.224-.5.5-.5h5c.276 0 .5.224.5.5S73.777 20 73.5 20zM70.5 26h-2c-.276 0-.5-.224-.5-.5s.224-.5.5-.5h2c.276 0 .5.224.5.5S70.776 26 70.5 26z"/><g><path fill="#fdfcef" d="M37.5,42.5V43h3v-0.5c0,0,4.242,0,5.5,0c2.485,0,4.5-2.015,4.5-4.5c0-2.333-1.782-4.229-4.055-4.455 C46.467,33.364,46.5,33.187,46.5,33c0-2.485-2.015-4.5-4.5-4.5c-1.438,0-2.703,0.686-3.527,1.736 C38.333,27.6,36.171,25.5,33.5,25.5c-2.761,0-5,2.239-5,5c0,0.446,0.077,0.87,0.187,1.282C28.045,31.005,27.086,30.5,26,30.5 c-1.781,0-3.234,1.335-3.455,3.055C22.364,33.533,22.187,33.5,22,33.5c-2.485,0-4.5,2.015-4.5,4.5s2.015,4.5,4.5,4.5s9.5,0,9.5,0 H37.5z"/><path fill="#472b29" d="M33.5,25c-3.033,0-5.5,2.467-5.5,5.5c0,0.016,0,0.031,0,0.047C27.398,30.192,26.71,30,26,30 c-1.831,0-3.411,1.261-3.858,3.005C22.095,33.002,22.048,33,22,33c-2.757,0-5,2.243-5,5s2.243,5,5,5h15.5 c0.276,0,0.5-0.224,0.5-0.5S37.776,42,37.5,42H22c-2.206,0-4-1.794-4-4s1.794-4,4-4c0.117,0,0.23,0.017,0.343,0.032l0.141,0.019 c0.021,0.003,0.041,0.004,0.062,0.004c0.246,0,0.462-0.185,0.495-0.437C23.232,32.125,24.504,31,26,31 c0.885,0,1.723,0.401,2.301,1.1c0.098,0.118,0.241,0.182,0.386,0.182c0.078,0,0.156-0.018,0.228-0.056 c0.209-0.107,0.314-0.346,0.254-0.573C29.054,31.218,29,30.852,29,30.5c0-2.481,2.019-4.5,4.5-4.5c2.381,0,4.347,1.872,4.474,4.263 c0.011,0.208,0.15,0.387,0.349,0.45c0.05,0.016,0.101,0.024,0.152,0.024c0.15,0,0.296-0.069,0.392-0.192 C39.638,29.563,40.779,29,42,29c2.206,0,4,1.794,4,4c0,0.117-0.017,0.23-0.032,0.343l-0.019,0.141 c-0.016,0.134,0.022,0.268,0.106,0.373c0.084,0.105,0.207,0.172,0.34,0.185C48.451,34.247,50,35.949,50,38c0,2.206-1.794,4-4,4 h-5.5c-0.276,0-0.5,0.224-0.5,0.5s0.224,0.5,0.5,0.5H46c2.757,0,5-2.243,5-5c0-2.397-1.689-4.413-4.003-4.877 C46.999,33.082,47,33.041,47,33c0-2.757-2.243-5-5-5c-1.176,0-2.293,0.416-3.183,1.164C38.219,26.76,36.055,25,33.5,25L33.5,25z"/><path fill="#472b29" d="M32 32c-1.403 0-2.609.999-2.913 2.341C28.72 34.119 28.301 34 27.875 34c-1.202 0-2.198.897-2.353 2.068C25.319 36.022 25.126 36 24.937 36c-1.529 0-2.811 1.2-2.918 2.732C22.01 38.87 22.114 38.99 22.251 39c.006 0 .012 0 .018 0 .13 0 .24-.101.249-.232.089-1.271 1.151-2.268 2.419-2.268.229 0 .47.042.738.127.022.007.045.01.067.01.055 0 .11-.02.156-.054C25.962 36.537 26 36.455 26 36.375c0-1.034.841-1.875 1.875-1.875.447 0 .885.168 1.231.473.047.041.106.063.165.063.032 0 .063-.006.093-.019.088-.035.148-.117.155-.212C29.623 33.512 30.712 32.5 32 32.5c.208 0 .425.034.682.107.023.007.047.01.07.01.109 0 .207-.073.239-.182.038-.133-.039-.271-.172-.309C32.517 32.04 32.256 32 32 32L32 32zM45.883 33.5c-1.326 0-2.508.897-2.874 2.182-.038.133.039.271.172.309C43.205 35.997 43.228 36 43.25 36c.109 0 .209-.072.24-.182C43.795 34.748 44.779 34 45.883 34c.117 0 .23.014.342.029.012.002.023.003.035.003.121 0 .229-.092.246-.217.019-.137-.077-.263-.214-.281C46.158 33.516 46.022 33.5 45.883 33.5L45.883 33.5z"/></g><g><path fill="#fefdef" d="M44.079,68.3c-2.966,0-5.379-2.413-5.379-5.379V37.162c0-2.966,2.413-5.379,5.379-5.379h22.842 c2.966,0,5.379,2.413,5.379,5.379v25.759c0,2.966-2.413,5.379-5.379,5.379H44.079z"/><path fill="#472b29" d="M66.921,32.483c2.58,0,4.679,2.099,4.679,4.679v25.759c0,2.58-2.099,4.679-4.679,4.679H44.079 c-2.58,0-4.679-2.099-4.679-4.679V37.162c0-2.58,2.099-4.679,4.679-4.679H66.921 M66.921,31.083H44.079 c-3.357,0-6.079,2.722-6.079,6.079v25.759C38,66.278,40.722,69,44.079,69h22.842C70.278,69,73,66.278,73,62.921V37.162 C73,33.805,70.278,31.083,66.921,31.083L66.921,31.083z"/><path fill="#78cdd4" d="M65.526,60.736H45.474c-1.712,0-3.099-1.387-3.099-3.099v-19.08c0-1.712,1.387-3.099,3.099-3.099 h20.052c1.712,0,3.099,1.387,3.099,3.099v19.08C68.625,59.349,67.238,60.736,65.526,60.736z"/><path fill="none" stroke="#472b29" stroke-linecap="round" stroke-miterlimit="10" d="M68.625 48.583L68.625 51.059 68.625 52.351M68.625 43.722L68.625 45.667"/><path fill="#b07454" stroke="#472b29" stroke-miterlimit="10" stroke-width=".5" d="M65.526,60.736 c1.531,0,2.794-1.112,3.046-2.571L58.417,45.667l-6.806,6.806v8.264H65.526z"/><path fill="#fef6aa" d="M62.792 38.861000000000004A2.431 2.431 0 1 0 62.792 43.723A2.431 2.431 0 1 0 62.792 38.861000000000004Z"/><path fill="none" stroke="#472b29" stroke-linecap="round" stroke-miterlimit="10" stroke-width=".5" d="M64.786 39.902c.275.394.436.873.436 1.39M64.807 42.651c-.437.647-1.176 1.072-2.015 1.072-1.342 0-2.431-1.088-2.431-2.431 0-1.342 1.088-2.431 2.431-2.431.386 0 .751.09 1.075.25"/><path fill="#d38b5d" stroke="#472b29" stroke-linecap="round" stroke-miterlimit="10" stroke-width=".5" d="M55.37 53.883l-6.675-8.216-6.319 6.319v5.651c0 1.711 1.387 3.099 3.099 3.099h15.464l-2.044-2.515M57.931 57.035L56.115 54.8"/><path fill="none" stroke="#472b29" stroke-linecap="round" stroke-linejoin="round" stroke-miterlimit="10" d="M68.625 54.449v2.996c0 1.688-1.387 3.056-3.099 3.056H45.474c-1.712 0-3.099-1.368-3.099-3.056v-13.56M42.375 41.413v-2.856c0-1.712 1.387-3.099 3.099-3.099h20.052c1.712 0 3.099 1.387 3.099 3.099v2.734"/></g><g><path fill="#fefdef" d="M39.5 48.7A13.8 13.8 0 1 0 39.5 76.3A13.8 13.8 0 1 0 39.5 48.7Z"/><path fill="#472b29" d="M39.5,49.4c7.223,0,13.1,5.877,13.1,13.1s-5.877,13.1-13.1,13.1s-13.1-5.877-13.1-13.1 S32.277,49.4,39.5,49.4 M39.5,48C31.492,48,25,54.492,25,62.5S31.492,77,39.5,77S54,70.508,54,62.5S47.508,48,39.5,48L39.5,48z"/></g><g><path fill="#fdfcef" d="M77.5,73.5c0,0,1.567,0,3.5,0s3.5-1.567,3.5-3.5c0-1.781-1.335-3.234-3.055-3.455 C81.473,66.366,81.5,66.187,81.5,66c0-1.933-1.567-3.5-3.5-3.5c-1.032,0-1.95,0.455-2.59,1.165 c-0.384-1.808-1.987-3.165-3.91-3.165c-2.209,0-4,1.791-4,4c0,0.191,0.03,0.374,0.056,0.558C67.128,64.714,66.592,64.5,66,64.5 c-1.228,0-2.245,0.887-2.455,2.055C63.366,66.527,63.187,66.5,63,66.5c-1.933,0-3.5,1.567-3.5,3.5s1.567,3.5,3.5,3.5s7.5,0,7.5,0 V74h7V73.5z"/><path fill="#472b29" d="M79.25 69C79.112 69 79 68.888 79 68.75c0-1.223.995-2.218 2.218-2.218.034.009.737-.001 1.244.136.133.036.212.173.176.306-.036.134-.173.213-.306.176-.444-.12-1.1-.12-1.113-.118-.948 0-1.719.771-1.719 1.718C79.5 68.888 79.388 69 79.25 69zM72.5 73A.5.5 0 1 0 72.5 74 .5.5 0 1 0 72.5 73z"/><path fill="#472b29" d="M81,74h-3.5c-0.276,0-0.5-0.224-0.5-0.5s0.224-0.5,0.5-0.5H81c1.654,0,3-1.346,3-3 c0-1.496-1.125-2.768-2.618-2.959c-0.134-0.018-0.255-0.088-0.336-0.196s-0.115-0.244-0.094-0.377C80.975,66.314,81,66.16,81,66 c0-1.654-1.346-3-3-3c-0.85,0-1.638,0.355-2.219,1c-0.125,0.139-0.321,0.198-0.5,0.148c-0.182-0.049-0.321-0.195-0.36-0.379 C74.58,62.165,73.141,61,71.5,61c-1.93,0-3.5,1.57-3.5,3.5c0,0.143,0.021,0.28,0.041,0.418c0.029,0.203-0.063,0.438-0.242,0.54 c-0.179,0.102-0.396,0.118-0.556-0.01C66.878,65.155,66.449,65,66,65c-0.966,0-1.792,0.691-1.963,1.644 c-0.048,0.267-0.296,0.446-0.569,0.405C63.314,67.025,63.16,67,63,67c-1.654,0-3,1.346-3,3s1.346,3,3,3h7.5 c0.276,0,0.5,0.224,0.5,0.5S70.776,74,70.5,74H63c-2.206,0-4-1.794-4-4s1.794-4,4-4c0.059,0,0.116,0.002,0.174,0.006 C63.588,64.82,64.711,64,66,64c0.349,0,0.689,0.061,1.011,0.18C67.176,61.847,69.126,60,71.5,60c1.831,0,3.466,1.127,4.153,2.774 C76.333,62.276,77.155,62,78,62c2.206,0,4,1.794,4,4c0,0.048-0.001,0.095-0.004,0.142C83.739,66.59,85,68.169,85,70 C85,72.206,83.206,74,81,74z"/><path fill="#472b29" d="M75.5,73c-0.159,0-0.841,0-1,0c-0.276,0-0.5,0.224-0.5,0.5c0,0.276,0.224,0.5,0.5,0.5 c0.159,0,0.841,0,1,0c0.276,0,0.5-0.224,0.5-0.5C76,73.224,75.776,73,75.5,73z"/></g><g><path fill="#ea5167" stroke="#472b29" stroke-miterlimit="10" stroke-width=".5" d="M39.847 60.733L39.987 60.648 39.847 60.648zM30.873 57.263l3.423 2.303c1.05-1.981 3.14-3.331 5.551-3.331 1.559 0 2.985.572 4.079 1.503l2.926-2.903c-1.847-1.672-4.3-2.691-7.005-2.691C36.015 52.143 32.678 54.204 30.873 57.263z"/></g><path fill="#f9e65c" stroke="#472b29" stroke-miterlimit="10" stroke-width=".5" d="M29.9,65.494l3.801-1.775 c-0.083-0.405-0.127-0.823-0.127-1.252c0-1.18,0.335-2.279,0.908-3.219l-3.489-2.18c-0.976,1.573-1.549,3.418-1.549,5.399 C29.444,63.52,29.605,64.536,29.9,65.494z"/><path fill="#a1d3a2" stroke="#472b29" stroke-miterlimit="10" stroke-width=".5" d="M39.847,72.79c2.817,0,4.909-0.778,6.433-1.97 l-3.25-2.989c-0.884,0.538-1.946,0.86-3.182,0.86c-3.061,0-5.606-2.175-6.158-5.053l-3.802,1.803 C31.174,69.689,35.142,72.79,39.847,72.79z"/><path fill="#48bed8" stroke="#472b29" stroke-miterlimit="10" stroke-width=".5" d="M39.847,64.593h5.667 c-0.425,1.36-1.271,2.485-2.447,3.214l3.233,3c3.384-2.66,3.942-7.369,3.352-10.144l-9.671-0.015l-0.134,0.081V64.593z"/></svg>