<svg xmlns="http://www.w3.org/2000/svg" xmlns:xlink="http://www.w3.org/1999/xlink" width="120" height="120" viewBox="0 0 120 120"><defs><radialGradient id="prefix__c" cx="50%" cy="0%" r="100%" fx="50%" fy="0%"><stop offset="0%" stop-color="#6BA0E2"/><stop offset="43.25%" stop-color="#54729A"/><stop offset="72.167%" stop-color="#385076"/><stop offset="100%" stop-color="#131E32"/></radialGradient><radialGradient id="prefix__g" cx="50%" cy="50%" r="48.336%" fx="50%" fy="50%" gradientTransform="matrix(-.52934 .8484 -.83984 -.524 1.185 .338)"><stop offset="0%" stop-color="#C42E6C"/><stop offset="100%" stop-color="#83234B" stop-opacity="0"/></radialGradient><radialGradient id="prefix__h" cx="28.026%" cy="93.556%" r="108.431%" fx="28.026%" fy="93.556%" gradientTransform="rotate(-67.69 .331 .902) scale(1 .92725)"><stop offset="0%" stop-color="#2E2327" stop-opacity="0"/><stop offset="100%" stop-color="#F369B5"/></radialGradient><radialGradient id="prefix__j" cx="50%" cy="50%" r="49.824%" fx="50%" fy="50%"><stop offset="0%" stop-color="#FF007B"/><stop offset="100%" stop-color="#C93C77" stop-opacity="0"/></radialGradient><radialGradient id="prefix__l" cx="-159.652%" cy="91.185%" r="700.551%" fx="-159.652%" fy="91.185%" gradientTransform="matrix(.37064 -.06192 1.79318 .0477 -2.64 .77)"><stop offset="0%" stop-color="#DB80A5" stop-opacity="0"/><stop offset="100%" stop-color="#F369B5"/></radialGradient><radialGradient id="prefix__m" cx="-159.652%" cy="91.185%" r="3895.016%" fx="-159.652%" fy="91.185%" gradientTransform="matrix(.06666 -.01114 .00143 1.93057 -1.491 -.866)"><stop offset="0%" stop-color="#DB80A5" stop-opacity="0"/><stop offset="100%" stop-color="#F369B5"/></radialGradient><radialGradient id="prefix__p" cx="92.427%" cy="79.5%" r="138.778%" fx="92.427%" fy="79.5%" gradientTransform="matrix(-.6194 -.57286 .8358 -1.5825 .832 2.583)"><stop offset="0%" stop-color="#FFF"/><stop offset="100%" stop-color="#C42E6C"/></radialGradient><radialGradient id="prefix__q" cx="0%" cy="32.876%" r="590.254%" fx="0%" fy="32.876%"><stop offset="0%" stop-color="#FF74A2"/><stop offset="100%" stop-color="#9E272E"/></radialGradient><linearGradient id="prefix__e" x1="62.885%" x2="58.37%" y1="87.862%" y2="4.07%"><stop offset="0%" stop-color="#83234B" stop-opacity="0"/><stop offset="100%" stop-color="#C42E6C"/></linearGradient><linearGradient id="prefix__s" x1="46.855%" x2="41.048%" y1="111.565%" y2="4.742%"><stop offset="0%" stop-color="#F4487D" stop-opacity=".16"/><stop offset="100%" stop-color="#FC3A78"/></linearGradient><linearGradient id="prefix__t" x1="50%" x2="152.174%" y1="100%" y2="-297.62%"><stop offset="0%" stop-color="#AC1948"/><stop offset="100%" stop-color="#EFC7D8"/></linearGradient><linearGradient id="prefix__u" x1="80.884%" x2="0%" y1="0%" y2="89.582%"><stop offset="0%" stop-color="#FB3B78"/><stop offset="100%" stop-color="#EFC7D8"/></linearGradient><linearGradient id="prefix__v" x1="74.488%" x2="-207.458%" y1="89.582%" y2="-81.619%"><stop offset="0%" stop-color="#AF224E"/><stop offset="100%" stop-color="#EFC7D8"/></linearGradient><circle id="prefix__a" cx="59.853" cy="59.853" r="59.853"/><circle id="prefix__b" cx="59.853" cy="59.853" r="59.853"/><circle id="prefix__d" cx="60.017" cy="59.853" r="54.865"/><circle id="prefix__i" cx="60.017" cy="59.853" r="39.902"/><path id="prefix__o" d="m53.338 24.209 39.477 27.593a6.956 6.956 0 0 1 4.29-1.471c3.854 0 6.978 3.118 6.978 6.965s-3.124 6.966-6.978 6.966c-3.854 0-6.979-3.119-6.979-6.966 0-.789.132-1.547.374-2.255L51.08 27.487l2.258-3.278z"/><path id="prefix__r" d="M60.017 4.988c14.398 0 27.501 5.546 37.289 14.62a54.94 54.94 0 0 0-11.932-1.303c-30.301 0-54.866 24.564-54.866 54.865 0 15.904 6.767 30.227 17.578 40.247C23.52 107.971 5.15 86.057 5.15 59.853c0-30.301 24.564-54.865 54.866-54.865z"/><filter id="prefix__n" width="134%" height="144.9%" x="-17%" y="-22.5%" filterUnits="objectBoundingBox"><feOffset in="SourceAlpha" result="shadowOffsetOuter1"/><feGaussianBlur in="shadowOffsetOuter1" result="shadowBlurOuter1" stdDeviation="3"/><feColorMatrix in="shadowBlurOuter1" values="0 0 0 0 0.951002038 0 0 0 0 0.370524746 0 0 0 0 0.61045536 0 0 0 1 0"/></filter></defs><g fill="none" fill-rule="evenodd"><use fill="#000" fill-opacity=".152" xlink:href="#prefix__a"/><use fill="url(#prefix__c)" xlink:href="#prefix__b"/><mask id="prefix__f" fill="#fff"><use xlink:href="#prefix__d"/></mask><use fill="#0C1321" xlink:href="#prefix__d"/><path fill="url(#prefix__e)" d="m63.535 63.228-3.552-3.45L103.12 25.53A54.264 54.264 0 0 1 115 59.5c0 14.516-5.675 27.706-14.927 37.474l1.446 1.335-37.984-35.08z" mask="url(#prefix__f)"/><circle cx="59.687" cy="59.354" r="15.795" fill="url(#prefix__g)" mask="url(#prefix__f)"/><circle cx="59.853" cy="59.687" r="49.878" stroke="url(#prefix__h)" mask="url(#prefix__f)"/><mask id="prefix__k" fill="#fff"><use xlink:href="#prefix__i"/></mask><use fill="url(#prefix__j)" opacity=".197" xlink:href="#prefix__i"/><circle cx="59.853" cy="59.687" r="34.249" stroke="url(#prefix__h)" mask="url(#prefix__k)"/><circle cx="59.687" cy="59.521" r="19.12" stroke="url(#prefix__h)" mask="url(#prefix__k)"/><path stroke="url(#prefix__l)" d="M3.518 109.73V0M0 96.825l7.235-.125M0 80.833l7.235-.125M0 29.023l7.235-.125M0 13.03l7.235-.126M0 45.015l7.235-.125M0 64.84l7.235-.125" opacity=".5" transform="translate(56.335 4.988)"/><path stroke="url(#prefix__m)" d="M109.73 54.865H0m13.108-3.595.125 7.235M29.1 51.27l.126 7.235M80.91 51.27l.126 7.235m15.866-7.235.126 7.235m-32.11-7.235.125 7.235m-19.95-7.235.125 7.235" opacity=".5" transform="translate(4.988 4.988)"/><g transform="rotate(105 77.581 44.235)"><use fill="#000" filter="url(#prefix__n)" xlink:href="#prefix__o"/><use fill="url(#prefix__p)" xlink:href="#prefix__o"/></g><circle cx="16.46" cy="48.381" r="2.494" fill="#C73E77" opacity=".4"/><path fill="url(#prefix__q)" d="m5.408.92.017.018a.72.72 0 0 1 0 1.018L4.21 3.173 5.425 4.39a.72.72 0 0 1 0 1.018l-.017.017a.72.72 0 0 1-1.018 0L3.173 4.21 1.956 5.425a.72.72 0 0 1-1.018 0L.92 5.408a.722.722 0 0 1 0-1.018l1.216-1.217L.92 1.956a.722.722 0 0 1 0-1.018L.938.92a.72.72 0 0 1 1.018 0l1.217 1.216L4.39.92a.72.72 0 0 1 1.018 0z" opacity=".624" transform="translate(75.254 95.593)"/><path fill="url(#prefix__q)" d="m5.408.92.017.018a.72.72 0 0 1 0 1.018L4.21 3.173 5.425 4.39a.72.72 0 0 1 0 1.018l-.017.017a.72.72 0 0 1-1.018 0L3.173 4.21 1.956 5.425a.72.72 0 0 1-1.018 0L.92 5.408a.722.722 0 0 1 0-1.018l1.216-1.217L.92 1.956a.722.722 0 0 1 0-1.018L.938.92a.72.72 0 0 1 1.018 0l1.217 1.216L4.39.92a.72.72 0 0 1 1.018 0z" opacity=".322" transform="translate(43.729 80.339)"/><path fill="#C73E77" d="m41.303 26.647.017.017a.718.718 0 0 1 0 1.018l-1.216 1.217 1.216 1.216a.72.72 0 0 1 0 1.019l-.017.017a.72.72 0 0 1-1.018 0l-1.217-1.216-1.217 1.216a.72.72 0 0 1-1.018 0l-.017-.017a.721.721 0 0 1 0-1.019l1.216-1.216-1.216-1.217a.72.72 0 0 1 0-1.018l.017-.017a.718.718 0 0 1 1.018 0l1.217 1.216 1.217-1.216a.718.718 0 0 1 1.018 0z" opacity=".3"/><circle cx="72.988" cy="22.445" r="2.494" fill="#C73E77" opacity=".197"/><circle cx="94.934" cy="46.386" r="2.494" fill="url(#prefix__q)"/><circle cx="103.912" cy="77.643" r="2.494" fill="url(#prefix__q)"/><use fill="#FFF" style="mix-blend-mode:soft-light" xlink:href="#prefix__r"/><g><path stroke="url(#prefix__s)" stroke-linejoin="round" stroke-width="1.8" d="M24.013.638 1.16 29.188m-.355 0 28.59 22.477m1.367 11.19-1.368-10.778" transform="translate(25.423 51.864)"/><g transform="scale(-1 1) rotate(-8 693.952 460.087)"><circle cx="2.542" cy="2.542" r="2.542" fill="url(#prefix__t)"/><path fill="#FFF" fill-opacity=".2" d="M2.421 0c.792 0 1.495.38 1.937.968A2.422 2.422 0 0 0 .969 4.359 2.421 2.421 0 0 1 2.421 0z"/></g><g transform="scale(-1 1) rotate(-8 332.918 398.306)"><circle cx="2.542" cy="2.542" r="2.542" fill="url(#prefix__u)"/><path fill="#FFF" fill-opacity=".2" d="M2.034 0C2.7 0 3.29.32 3.662.815A2.033 2.033 0 0 0 .815 3.662 2.034 2.034 0 0 1 2.034 0z"/></g><g transform="scale(-1 1) rotate(-8 548.216 260.858)"><circle cx="3.132" cy="3.132" r="3.132" fill="url(#prefix__v)"/><path fill="#FFF" fill-opacity=".2" d="M2.983 0a2.98 2.98 0 0 1 2.386 1.192 2.982 2.982 0 0 0-4.176 4.176A2.984 2.984 0 0 1 2.983 0z"/></g></g></g></svg>